<?xml version="1.0" encoding="utf-8"?>
<!-- Generator: Adobe Illustrator 16.0.0, SVG Export Plug-In . SVG Version: 6.00 Build 0)  -->
<!DOCTYPE svg PUBLIC "-//W3C//DTD SVG 1.1//EN" "http://www.w3.org/Graphics/SVG/1.1/DTD/svg11.dtd">
<svg version="1.1" xmlns="http://www.w3.org/2000/svg" xmlns:xlink="http://www.w3.org/1999/xlink" x="0px" y="0px"
	 width="841.89px" height="595.28px" viewBox="0 0 841.89 595.28" enable-background="new 0 0 841.89 595.28" xml:space="preserve">
<g id="Warstwa_1">
	<path fill="#0B8383" d="M207,511.5h175c0,0,6.75-0.25,7.25-6.25s0-25.5,0-25.5s-1.75-7.75-9.5-7.25S208,472.477,208,472.477
		s-5.75,1.273-7.75,5.523s0,26.5,0,26.5S202.25,510.25,207,511.5z"/>
	<polygon fill="#0B8383" points="335.503,472.716 335.503,215 316,215 318.667,472.477 321,482.329 334,482.329 	"/>
	<polygon fill="#0B8383" points="271.503,472.716 271.503,215 252,215 254.667,472.477 257,482.329 270,482.329 	"/>
	<path fill="#0B8383" d="M149.333,260.999H213c0,0,7.25-0.874,8.125-9.749s0-21.5,0-21.5s-1.625-7.625-9.5-8.125
		s-62.292,0.708-62.292,0.708s-7,3-8,6.333s0,24.167,0,24.167S143.5,261.832,149.333,260.999z"/>
	<rect x="265.333" y="446.329" fill="#0B8383" width="53.197" height="13.001"/>
	<polyline fill="#0B8383" points="318.082,415.992 279.667,446.329 265.333,447.996 271.503,433.662 318.53,395.329 
		317.764,385.332 	"/>
	<polygon fill="#0B8383" points="271.503,399.996 325.752,399.996 323,385.332 270.333,385.332 	"/>
	<polygon fill="#0B8383" points="271.503,372.329 270.333,385.332 281,385.332 322,350.996 323.333,337.329 317.267,337.329 	"/>
	<polygon fill="#0B8383" points="271.503,339.329 325.752,339.329 325.752,324.663 267.667,324.663 270.333,339.329 	"/>
	<polygon fill="#0B8383" points="318.53,274.997 267.667,316.664 267.667,327.997 280.667,324.663 318.53,291.287 	"/>
	<polygon fill="#0B8383" points="316.507,264.003 257.333,264.003 265.333,277.998 322,277.998 	"/>
	<polygon fill="#0B8383" points="316,215 267.667,255.666 270.333,266.666 280.333,264.003 323.333,229.332 	"/>
	<path fill="#0B8383" d="M147.333,216.335c0,0-5.958-0.085-5.833-5.085s-0.002-13.125-0.002-13.125s0.252-5.125,5.002-5.375
		c2.247-0.119,92.355-0.125,186.665-0.099c0.446,0,0.893,0,1.34,0c104.576,0.03,213.827,0.099,213.827,0.099
		s5.605,1.938,5.043,5.688s0.04,12.75,0.04,12.75s-0.29,5.296-4.603,5.148S147.333,216.335,147.333,216.335z"/>
	<path fill="#0B8383" d="M303.667,88.499l29.499,104.152h-18.332L295.5,123.499l-20.5,69.14l-18.333,0.012L285.5,90.332
		C285.5,90.332,292,72.166,303.667,88.499z"/>
	<polygon fill="#0B8383" points="160.25,192.687 285.749,89.707 288.5,102.25 172.25,192.639 158.75,197.5 	"/>
	<polygon fill="#0B8383" points="303.667,88.499 535,192.639 516.75,192.639 306.266,97.675 	"/>
	<polygon fill="#0B8383" points="520.25,216.338 520.25,269.75 526.75,269.75 526.75,216.29 	"/>
	<polygon fill="#0B8383" points="537.75,216.29 544.5,216.338 544.5,269.75 537.75,269.75 	"/>
	<path fill="#0B8383" d="M526.75,269.75h11c0,0,11.251-3.25,13.584,8.25s0,19.641,0,19.641s-2,18.526-9,19.526s-18.834-1-18.834-1
		s-0.487-0.221-1.245-0.785c-2.28-1.697-7.005-6.502-8.255-17.741c-1.666-14.975-0.833-19.308-0.833-19.308s1.666-8.582,7.083-8.582
		S526.75,269.75,526.75,269.75z"/>
	<path fill="#0B8383" d="M522,318.83c0,0-0.334,3.168,3,3.834s12.75,0,12.75,0s3.75,0.297,4.75-1.769s-0.166-3.729-0.166-3.729
		l-18.167-2.502l-0.667-0.834L522,318.83z"/>
	<path fill="#0B8383" d="M549.5,340.827c-0.334-8.5-13.17-14-13.17-14v-4.075l-7.496,0.208l0.917,9.29c0,0,13,2.333,13.5,10.333
		s0,5,0,5s-9.354,20.918-21.261-1.416c0,0-3.657-2.346-5.49,0.827c-1.834,12.167,13.167,16,13.167,16s-0.167-0.667,9-0.667
		s11.167-13,11.167-13S549.834,349.327,549.5,340.827z"/>
</g>
<g id="Warstwa_2">
	<path fill="#0B8383" d="M532.939,375.806c0,0-7.698-4.152-10.813,5.406s9.04,17.993,11.375,13.624"/>
	<path fill="#0B8383" d="M532.645,375.777c0,0,7.487-4.523,11.064,4.872c3.578,9.395-8.149,18.412-10.696,14.163"/>
	<path fill="#0B8383" d="M534.445,369.789l1.925,0.714c0,0-3.396,3.352-3.353,5.319c0.044,1.969-0.715-0.086-0.715-0.086
		S533.104,371.26,534.445,369.789z"/>
	<path fill="#0B8383" d="M532.693,372.535c0,0,1.341-2.897-5.298-4.39C520.756,366.653,533.818,376.753,532.693,372.535z"/>
</g>
<g id="Warstwa_3">
	<path fill="#0B8383" d="M514.494,421.132c0,0-4.729,7.369-0.851,0.101c3.878-7.27,11.198-1.896,11.198-1.896l1.061-0.126
		c0,0,2.145-6.58,7.225-1.924c0,0,5.379,1.356,4.841,4.085c0,0,2.737,1.995,2.648,4.16c0,0,1.665,1.854,0.415,3.218
		c0,0,5.659,4.292,0.256,8.928c0,0,1.287,3.66-1.295,4.397c0,0,3.354,2.103,0.053,5.512c0,0,1.15,3.044-0.814,3.97
		c0,0,4.526,3.949,0.838,7.061c0,0,4.485,4.036,4.599,5.919c0.112,1.883-1.336,2.745-2.132,2.581c0,0-2.503,3.92-4.815,3.159
		c-2.313-0.76-16.088,0.1-16.088,0.1l-8.233-2.557l-3.061-4.723l-5.964-7.402c-1.561-0.073-2.368-3.252-1.328-3.204
		c1.039,0.049,0.579-0.93,0.623-1.28c0.045-0.351-1.127-2.969,1.2-3.59c2.328-0.622-0.313-2.646-0.313-2.646"/>
	<path fill="#0B8383" d="M513.424,421.646c0,0-2.12,0.205-1.854,1.725c0.268,1.52-4.657-2.205-4.073,6.346
		c0,0-4.326,4.222-2.642,8.245c1.684,4.024-2.182,2.674-0.162,7.347"/>
	<polygon fill="#0B8383" points="507.623,440.225 506.227,436.441 510.341,428.266 511.522,424.419 512.926,422.442 
		515.787,420.411 514.535,426.562 	"/>
	<path fill="#0B8383" d="M504.502,455.853c0,0-4.194,3.347-3.416,6.271c0,0-1.357,3.093-0.036,4.056c0,0-0.742,3.709,2.488,3.067
		c3.23-0.643,5.838,5.342,5.838,5.342l2.025,5.449l3.868,2.815l4.878,2.61l7.814-1.272l4.571-3.301l-3.018-9.454
		c0,0-2.178-5.271-2.303-5.602c-0.126-0.33-7.557-5.568-8.223-6.092c-0.666-0.525-7.658-2.798-8.093-2.833
		C510.462,456.875,504.502,455.853,504.502,455.853z"/>
	<path fill="#0B8383" d="M503.744,469.218c0,0-3.103,11.669-2.032,11.973s-1.861,0.307,5.482,6.245L503.744,469.218z"/>
	<path fill="#0B8383" d="M525.84,505.825c0,0-3.408,17.041-16.265,16.929c-12.856-0.111-18.675-18.642-14.132-20.302
		s6.199-1.512,6.199-1.512s-0.623-2.341,0.982-2.617c1.604-0.275,4.569-10.888,4.569-10.888l-3.45-18.218l25.158,15.206
		L525.84,505.825z"/>
	<path fill="#0B8383" d="M566.024,519.765c0,0-2.868-6.727-7.859-8.117c-4.993-1.39-9.708-6.26-10.44-8.07
		c-0.731-1.809-4.364-3.36-4.364-3.36s-8.198,7.17-17.521,5.608c-9.322-1.561,3.314-11.594,3.314-11.594l12.5-4.327
		c0,0,7.88-2.314,9.731,3.843c0,0,13.026,17.346,16.381,18.37s0.891,1.511,0.891,1.511s0.34-0.945,1.684-0.523
		c1.343,0.423,2.481,0.217,3.868,2.092s1.352,1.038,1.352,1.038l0.789,1.199c0,0,5.898,3.955,7.287,3.66
		c1.387-0.293,2.689,4.142-1.11,4.271c0,0-4.836,1.737-9.259-0.13c-4.424-1.867-6.563-3.553-6.563-3.553
		S565.15,519.488,566.024,519.765z"/>
	<polygon fill="#0B8383" points="504.541,465.082 503.392,470.586 503.69,478.538 505.634,484.604 506.586,487.072 509.314,487.185 
		510.734,478.052 508.156,468.014 506.793,465.935 	"/>
	<path fill="#0B8383" d="M538.172,470.365c0,0,3.638,8.243,2.053,9.595s2.684,2.462,2.684,2.462l-1.832,9.073l-6.774,4.295
		l-9.2,1.092l-3.999-4.664l0.763-12.794c0,0,2.026-9.614,2.515-9.866c0.487-0.251,6.726-3.791,7.642-3.696
		c0.917,0.095,6.994,2.283,6.994,2.283L538.172,470.365z"/>
	<path fill="#0B8383" d="M572.602,507.729c-0.961,1.794,0.618,4.581,0.618,4.581c-0.625,0.721,4.007,1.076,4.007,1.076l-0.488-0.847
		c0,0-2.292-0.246,5.566,1.695c7.859,1.94,7.273-2.445,7.273-2.445s-1.903-2.424-4.964-2.061"/>
	<path fill="#0B8383" d="M585.29,509.694c0,0-3.276-1.725-3.431-2.481c-0.154-0.758-1.735-2.64-2.677-2.398
		s-1.831-0.171-1.831-0.171s-4.318-5.887-5.108-11.999s-5.153,2.875-5.153,2.875l-1.379,1.456c0,0,8.729,9.824,7.23,11.359"/>
	<path fill="#0B8383" d="M565.711,496.976c0,0-5.189-5.59-3.798-9.117c0,0-0.541-2.263-0.845-3.52
		c-0.304-1.258-3.686,6.967-10.269,8.039c-6.582,1.072-4.499-6.43-4.499-6.43l1.239-4.271l6.629-2.921l6.728-2.737l3.717,0.27
		c0,0,3.508,1.782,3.346,4.775c-0.162,2.992,3.691,8.566,3.806,9.901"/>
	<path fill="#0B8383" d="M562.692,476.452c0,0,4.001-4.418,5.704-4.231c1.703,0.185-0.333-2.806-0.333-2.806l-1.234-1.146
		l-3.315,0.394l2.188-2.265c0,0-11.466,2.524-14.434,4.751c-2.968,2.229-5.603,8.358-4.378,9.959c1.225,1.6-4.052,1.661-4.052,1.661
		l-2.479,7.583l3.609,0.994l4.213-2.635"/>
	<path fill="#0B8383" d="M552.829,470.685c0,0-6.327-1.559-7.313-1.148c-0.986,0.41-2.11-2.568-2.11-2.568l-8.947,5.272l3.361,3.803
		l9.482,3.1l6.217-2.635L552.829,470.685z"/>
</g>
</svg>
