<?xml version="1.0" encoding="utf-8"?>
<!-- Generator: Adobe Illustrator 16.0.0, SVG Export Plug-In . SVG Version: 6.00 Build 0)  -->
<!DOCTYPE svg PUBLIC "-//W3C//DTD SVG 1.1//EN" "http://www.w3.org/Graphics/SVG/1.1/DTD/svg11.dtd">
<svg version="1.1" xmlns="http://www.w3.org/2000/svg" xmlns:xlink="http://www.w3.org/1999/xlink" x="0px" y="0px"
	 width="314.646px" height="156.207px" viewBox="0 0 314.646 156.207" enable-background="new 0 0 314.646 156.207"
	 xml:space="preserve">
<g id="Warstwa_1">
	<g>
		<polygon fill="#FFFFFF" points="108.831,93.376 108.831,57.72 129.14,93.376 142.775,56.196 142.863,56.196 142.863,55.957 
			150.153,36.089 142.863,36.089 139.186,36.089 129.102,36.089 129.102,71.732 108.831,36.089 95.019,36.089 95.019,93.376 		"/>
		<path fill="#FFFFFF" d="M238.324,82.749l0.025-0.075h18.924l3.349,10.702h14.832l-21.165-57.287h-12.993l-17.084,46.588h-4.622
			V36.089h-13.812v2.77c0.78,0.378,1.511,0.818,2.19,1.284c3.84,2.694,5.767,6.623,5.767,11.76c0,2.958-0.692,5.489-2.053,7.592
			c-1.334,2.077-3.311,3.601-5.904,4.595V38.859c-3.677-1.851-8.548-2.77-14.631-2.77h-0.792h-12.49h-7.303h-7.429l7.429,20.107
			l13.736,37.18h6.057h3.462c4.784-0.038,8.775-0.718,11.961-2.065V64.178c2.934,0.781,5.199,2.241,6.773,4.369
			c1.599,2.153,2.393,4.772,2.393,7.869c0,5.616-1.775,9.833-5.326,12.654c-1.108,0.881-2.393,1.636-3.84,2.24v2.065h13.812h0.705
			h14.743L238.324,82.749z M247.793,52.142l6.182,19.868h-12.326L247.793,52.142z M184.374,46.703h5.981h0.792
			c3.098,0,5.339,0.541,6.724,1.599c1.397,1.07,2.09,2.807,2.09,5.237c0,2.103-0.642,3.689-1.926,4.772s-3.438,1.637-6.459,1.662
			h-1.221h-5.981V46.703z M199.168,81.037c-1.335,1.146-3.248,1.712-5.741,1.712h-3.071h-5.981V69.013h5.981h3.701
			c4.746,0.025,7.126,2.43,7.126,7.202C201.183,78.292,200.516,79.891,199.168,81.037"/>
		<polygon fill="#FFFFFF" points="157.896,56.196 156.638,52.142 155.391,56.196 150.505,72.009 162.819,72.009 		"/>
		<path fill="#FFFFFF" d="M39.633,36.088L60.76,93.376h13.295l0.807-2.203L95.02,36.088H39.633z M76.989,75.61l-3.916,10.714
			L69.12,75.61L56.617,41.716h32.774l-6.472,17.703L76.989,75.61z"/>
		<polygon fill="#FFFFFF" points="143.896,93.376 169.467,93.376 166.118,82.674 147.194,82.674 		"/>
	</g>
</g>
<g id="Warstwa_2">
	<g>
		<path fill="#FFFFFF" d="M98.103,115.071v3.305h-2.348v-9.74h3.887c0.745,0,1.403,0.138,1.977,0.412s1.017,0.664,1.331,1.17
			c0.314,0.507,0.472,1.081,0.472,1.723c0,0.95-0.34,1.709-1.02,2.278c-0.68,0.568-1.613,0.853-2.8,0.853H98.103z M98.103,113.259
			h1.539c0.455,0,0.801-0.114,1.04-0.342c0.239-0.227,0.358-0.548,0.358-0.963c0-0.455-0.123-0.818-0.368-1.091
			c-0.245-0.271-0.58-0.41-1.003-0.414h-1.565V113.259z"/>
		<path fill="#FFFFFF" d="M112.813,118.376h-2.334v-4.067h-3.458v4.067h-2.348v-9.74h2.348v3.867h3.458v-3.867h2.334V118.376z"/>
		<path fill="#FFFFFF" d="M117.676,112.864l1.793-4.229h2.535l-3.137,6.241v3.499h-2.382v-3.499l-3.13-6.241h2.522L117.676,112.864z
			"/>
		<path fill="#FFFFFF" d="M127.63,115.787c0-0.344-0.122-0.611-0.365-0.803s-0.67-0.39-1.281-0.596
			c-0.611-0.205-1.111-0.403-1.499-0.595c-1.262-0.62-1.893-1.472-1.893-2.556c0-0.539,0.157-1.016,0.471-1.428
			c0.314-0.413,0.759-0.734,1.335-0.964c0.575-0.229,1.222-0.345,1.94-0.345c0.7,0,1.328,0.125,1.883,0.375s0.987,0.605,1.294,1.067
			c0.308,0.461,0.461,0.988,0.461,1.582h-2.341c0-0.397-0.122-0.705-0.364-0.924c-0.243-0.218-0.572-0.327-0.987-0.327
			c-0.419,0-0.75,0.092-0.993,0.277c-0.243,0.185-0.365,0.42-0.365,0.706c0,0.249,0.134,0.476,0.401,0.679s0.738,0.412,1.412,0.629
			c0.673,0.216,1.226,0.449,1.659,0.699c1.053,0.606,1.579,1.442,1.579,2.508c0,0.853-0.321,1.521-0.963,2.007
			c-0.643,0.486-1.523,0.729-2.643,0.729c-0.789,0-1.504-0.142-2.144-0.425c-0.64-0.283-1.122-0.671-1.445-1.164
			c-0.323-0.492-0.485-1.061-0.485-1.702h2.354c0,0.521,0.135,0.906,0.405,1.153c0.27,0.248,0.708,0.372,1.314,0.372
			c0.388,0,0.695-0.084,0.92-0.251C127.517,116.325,127.63,116.091,127.63,115.787z"/>
		<path fill="#FFFFFF" d="M133.684,118.376h-2.341v-9.74h2.341V118.376z"/>
		<path fill="#FFFFFF" d="M143.196,115.078c-0.031,0.678-0.214,1.276-0.549,1.796s-0.804,0.922-1.408,1.208
			c-0.604,0.285-1.294,0.428-2.07,0.428c-1.28,0-2.288-0.417-3.023-1.251s-1.104-2.011-1.104-3.532v-0.481
			c0-0.954,0.166-1.789,0.499-2.505c0.332-0.716,0.811-1.269,1.435-1.659c0.624-0.391,1.347-0.585,2.167-0.585
			c1.182,0,2.132,0.311,2.85,0.933c0.718,0.622,1.126,1.479,1.224,2.572h-2.341c-0.018-0.593-0.167-1.019-0.448-1.277
			c-0.281-0.259-0.709-0.389-1.285-0.389c-0.584,0-1.012,0.219-1.284,0.656c-0.272,0.437-0.415,1.135-0.428,2.094v0.688
			c0,1.039,0.13,1.782,0.392,2.228c0.261,0.446,0.71,0.669,1.348,0.669c0.54,0,0.952-0.127,1.238-0.381
			c0.285-0.255,0.437-0.658,0.455-1.211H143.196z"/>
		<path fill="#FFFFFF" d="M149.331,115.787c0-0.344-0.122-0.611-0.365-0.803s-0.67-0.39-1.281-0.596
			c-0.611-0.205-1.111-0.403-1.499-0.595c-1.262-0.62-1.893-1.472-1.893-2.556c0-0.539,0.157-1.016,0.471-1.428
			c0.314-0.413,0.759-0.734,1.335-0.964c0.575-0.229,1.222-0.345,1.94-0.345c0.7,0,1.328,0.125,1.883,0.375s0.987,0.605,1.294,1.067
			c0.308,0.461,0.461,0.988,0.461,1.582h-2.341c0-0.397-0.122-0.705-0.364-0.924c-0.243-0.218-0.572-0.327-0.987-0.327
			c-0.419,0-0.75,0.092-0.993,0.277c-0.243,0.185-0.365,0.42-0.365,0.706c0,0.249,0.134,0.476,0.401,0.679s0.738,0.412,1.412,0.629
			c0.673,0.216,1.226,0.449,1.659,0.699c1.053,0.606,1.579,1.442,1.579,2.508c0,0.853-0.321,1.521-0.963,2.007
			c-0.643,0.486-1.523,0.729-2.643,0.729c-0.789,0-1.504-0.142-2.144-0.425c-0.64-0.283-1.122-0.671-1.445-1.164
			c-0.323-0.492-0.485-1.061-0.485-1.702h2.354c0,0.521,0.135,0.906,0.405,1.153c0.27,0.248,0.708,0.372,1.314,0.372
			c0.388,0,0.695-0.084,0.92-0.251C149.218,116.325,149.331,116.091,149.331,115.787z"/>
		<path fill="#FFFFFF" d="M161.318,115.787c0-0.344-0.122-0.611-0.365-0.803s-0.67-0.39-1.281-0.596
			c-0.611-0.205-1.11-0.403-1.498-0.595c-1.262-0.62-1.893-1.472-1.893-2.556c0-0.539,0.157-1.016,0.471-1.428
			c0.314-0.413,0.76-0.734,1.335-0.964s1.222-0.345,1.94-0.345c0.699,0,1.327,0.125,1.883,0.375c0.555,0.25,0.986,0.605,1.294,1.067
			c0.308,0.461,0.462,0.988,0.462,1.582h-2.342c0-0.397-0.121-0.705-0.364-0.924c-0.243-0.218-0.572-0.327-0.987-0.327
			c-0.419,0-0.75,0.092-0.992,0.277c-0.244,0.185-0.365,0.42-0.365,0.706c0,0.249,0.134,0.476,0.401,0.679s0.737,0.412,1.411,0.629
			c0.674,0.216,1.227,0.449,1.659,0.699c1.053,0.606,1.579,1.442,1.579,2.508c0,0.853-0.321,1.521-0.963,2.007
			c-0.643,0.486-1.523,0.729-2.643,0.729c-0.789,0-1.504-0.142-2.145-0.425c-0.64-0.283-1.122-0.671-1.445-1.164
			c-0.323-0.492-0.485-1.061-0.485-1.702h2.354c0,0.521,0.135,0.906,0.405,1.153c0.27,0.248,0.707,0.372,1.314,0.372
			c0.388,0,0.694-0.084,0.92-0.251C161.205,116.325,161.318,116.091,161.318,115.787z"/>
		<path fill="#FFFFFF" d="M172.516,110.449h-2.924v7.927h-2.348v-7.927h-2.869v-1.813h8.141V110.449z"/>
		<path fill="#FFFFFF" d="M181.145,108.636v6.375c0,0.723-0.153,1.349-0.461,1.877s-0.749,0.931-1.324,1.207
			c-0.576,0.277-1.256,0.415-2.041,0.415c-1.186,0-2.12-0.308-2.803-0.923c-0.682-0.615-1.029-1.459-1.043-2.529v-6.422h2.361v6.469
			c0.026,1.066,0.521,1.6,1.484,1.6c0.486,0,0.854-0.135,1.104-0.402c0.25-0.268,0.375-0.702,0.375-1.304v-6.362H181.145z"/>
		<path fill="#FFFFFF" d="M182.61,118.376v-9.74h3.138c0.86,0,1.634,0.195,2.321,0.586c0.686,0.39,1.223,0.94,1.609,1.652
			c0.385,0.711,0.58,1.508,0.584,2.392v0.448c0,0.892-0.188,1.691-0.564,2.397c-0.377,0.707-0.908,1.26-1.592,1.659
			c-0.686,0.399-1.449,0.602-2.292,0.605H182.61z M184.959,110.449v6.12h0.815c0.674,0,1.191-0.239,1.553-0.719
			s0.541-1.191,0.541-2.137v-0.422c0-0.94-0.18-1.65-0.541-2.127c-0.361-0.478-0.889-0.716-1.579-0.716H184.959z"/>
		<path fill="#FFFFFF" d="M197.508,114.242h-3.692v2.327h4.361v1.807h-6.709v-9.74h6.723v1.813h-4.375v2.054h3.692V114.242z"/>
		<path fill="#FFFFFF" d="M207.268,118.376h-2.335l-3.451-6.061v6.061h-2.348v-9.74h2.348l3.445,6.061v-6.061h2.341V118.376z"/>
		<path fill="#FFFFFF" d="M216.204,110.449h-2.923v7.927h-2.349v-7.927h-2.869v-1.813h8.141V110.449z"/>
		<path fill="#FFFFFF" d="M225.229,115.787c0-0.344-0.122-0.611-0.364-0.803c-0.243-0.191-0.671-0.39-1.281-0.596
			c-0.611-0.205-1.11-0.403-1.499-0.595c-1.262-0.62-1.893-1.472-1.893-2.556c0-0.539,0.157-1.016,0.472-1.428
			c0.314-0.413,0.759-0.734,1.334-0.964s1.222-0.345,1.94-0.345c0.7,0,1.328,0.125,1.883,0.375c0.556,0.25,0.986,0.605,1.295,1.067
			c0.308,0.461,0.461,0.988,0.461,1.582h-2.341c0-0.397-0.122-0.705-0.365-0.924c-0.243-0.218-0.571-0.327-0.986-0.327
			c-0.419,0-0.75,0.092-0.993,0.277c-0.243,0.185-0.365,0.42-0.365,0.706c0,0.249,0.134,0.476,0.401,0.679s0.738,0.412,1.412,0.629
			c0.673,0.216,1.227,0.449,1.659,0.699c1.052,0.606,1.578,1.442,1.578,2.508c0,0.853-0.321,1.521-0.963,2.007
			c-0.643,0.486-1.523,0.729-2.643,0.729c-0.789,0-1.504-0.142-2.144-0.425c-0.641-0.283-1.122-0.671-1.445-1.164
			c-0.323-0.492-0.485-1.061-0.485-1.702h2.355c0,0.521,0.135,0.906,0.404,1.153c0.27,0.248,0.708,0.372,1.314,0.372
			c0.388,0,0.694-0.084,0.92-0.251C225.115,116.325,225.229,116.091,225.229,115.787z"/>
		<path fill="#FFFFFF" d="M237.029,113.707c0,0.949-0.177,1.79-0.529,2.521c-0.352,0.731-0.853,1.295-1.501,1.689
			c-0.649,0.395-1.389,0.592-2.218,0.592c-0.83,0-1.565-0.19-2.208-0.572c-0.642-0.381-1.143-0.926-1.502-1.636
			c-0.358-0.709-0.547-1.522-0.564-2.441v-0.548c0-0.955,0.175-1.797,0.524-2.525c0.351-0.729,0.853-1.292,1.506-1.689
			c0.653-0.396,1.396-0.596,2.23-0.596c0.825,0,1.561,0.196,2.208,0.589c0.646,0.393,1.149,0.951,1.508,1.676
			c0.359,0.725,0.541,1.556,0.546,2.492V113.707z M234.641,113.299c0-0.968-0.161-1.702-0.485-2.204
			c-0.323-0.502-0.785-0.753-1.388-0.753c-1.178,0-1.8,0.883-1.866,2.649l-0.007,0.716c0,0.954,0.158,1.688,0.475,2.2
			c0.317,0.514,0.787,0.77,1.412,0.77c0.593,0,1.05-0.252,1.371-0.756s0.483-1.229,0.488-2.174V113.299z"/>
		<path fill="#FFFFFF" d="M246.12,115.078c-0.031,0.678-0.214,1.276-0.549,1.796c-0.334,0.52-0.804,0.922-1.408,1.208
			c-0.604,0.285-1.294,0.428-2.07,0.428c-1.28,0-2.288-0.417-3.023-1.251c-0.736-0.834-1.104-2.011-1.104-3.532v-0.481
			c0-0.954,0.166-1.789,0.498-2.505s0.811-1.269,1.435-1.659c0.625-0.391,1.347-0.585,2.168-0.585c1.182,0,2.131,0.311,2.85,0.933
			c0.718,0.622,1.126,1.479,1.224,2.572h-2.341c-0.018-0.593-0.167-1.019-0.448-1.277s-0.709-0.389-1.284-0.389
			c-0.585,0-1.013,0.219-1.285,0.656c-0.271,0.437-0.414,1.135-0.428,2.094v0.688c0,1.039,0.131,1.782,0.392,2.228
			c0.261,0.446,0.71,0.669,1.348,0.669c0.54,0,0.952-0.127,1.237-0.381c0.286-0.255,0.438-0.658,0.455-1.211H246.12z"/>
		<path fill="#FFFFFF" d="M249.731,118.376h-2.341v-9.74h2.341V118.376z"/>
		<path fill="#FFFFFF" d="M257.405,114.242h-3.692v2.327h4.361v1.807h-6.709v-9.74h6.723v1.813h-4.375v2.054h3.692V114.242z"/>
		<path fill="#FFFFFF" d="M266.811,110.449h-2.923v7.927h-2.349v-7.927h-2.869v-1.813h8.141V110.449z"/>
		<path fill="#FFFFFF" d="M271.474,112.864l1.792-4.229h2.535l-3.137,6.241v3.499h-2.382v-3.499l-3.131-6.241h2.522L271.474,112.864
			z"/>
	</g>
</g>
</svg>
